<?xml version="1.0" encoding="UTF-8"?>
<svg xmlns="http://www.w3.org/2000/svg" version="1.1" viewBox="0 0 24 24">
  <defs>
    <style>
      .cls-1, .cls-2 {
        fill: #fff;
      }

      .cls-3 {
        fill: none;
      }

      .cls-2 {
        isolation: isolate;
        opacity: .3;
      }
    </style>
  </defs>
  <!-- Generator: Adobe Illustrator 28.7.2, SVG Export Plug-In . SVG Version: 1.2.0 Build 154)  -->
  <g>
    <g id="_레이어_1" data-name="레이어_1">
      <g id="_레이어_1-2" data-name="_레이어_1">
        <g>
          <path class="cls-3" d="M20.7,8.8c-1.3.6-3,.4-4.1-.7-.7-.7-1-1.6-1-2.5s.1-1.1.4-1.5h-7.2c-1.1,0-2.1,0-3.1.3-.4.2-.8.6-1,1.1-.3.9-.4,1.9-.3,2.9v7.1c.2.8.9,1.5,1.8,1.8.5,0,1.1.1,1.7,0h0c0,0,.2,0,.3.1,0,0,.2.2.2.4v3.1s.3-.3.5-.4l2.4-2c.3-.3.7-.6,1.1-.8.3-.2.6-.3.9-.3h2.9c1.1.1,2.1,0,3.1-.3.4-.2.8-.6,1.1-1.1.3-.9.4-1.9.3-3v-4.2Z"/>
          <path class="cls-2" d="M20.9,3.8c-.5-.5-1.1-.8-1.8-.8s-1.3.3-1.8.8c-.5.5-.8,1.1-.8,1.8s.3,1.3.8,1.8c1,1,2.6,1,3.6,0s1-2.6,0-3.6Z"/>
          <path class="cls-1" d="M21.7,8.1c1.4-1.4,1.4-3.6,0-5-1.3-1.3-3.7-1.3-5,0h-7.9c-1.2,0-2.3,0-3.5.4-.7.3-1.2.9-1.6,1.6-.4,1.1-.5,2.3-.4,3.4v5.3c0,.6,0,1.3,0,2,.3,1.2,1.3,2.2,2.6,2.5.5,0,.9.1,1.4.1v1.9c0,.7,0,1,.2,1.3.2.2.5.4.8.4s.6-.2,1.1-.6l2.5-2c.3-.3.6-.5.9-.7.2-.1.4-.2.6-.2h2.7c1.2.1,2.3,0,3.5-.4.7-.3,1.2-.9,1.6-1.6.4-1.1.5-2.3.4-3.4v-4.9h0ZM20.4,16c-.2.5-.6.9-1.1,1.1-1,.3-2,.4-3.1.3h-2.9c-.3,0-.6.2-.9.3-.4.2-.8.5-1.1.8l-2.4,2c-.2.2-.5.4-.5.4v-3.1c0-.1,0-.3-.2-.4,0,0-.2-.1-.3-.1s0,0,0,0h-1.7c-.9-.2-1.6-.9-1.8-1.8,0-.6,0-1.1,0-1.7v-5.4c0-1,0-2.1.3-2.9.2-.5.6-.9,1-1.1,1-.3,2-.4,3.1-.3h7.2c-.2.5-.4,1-.4,1.5,0,1,.4,1.8,1,2.5,1.1,1.1,2.7,1.3,4.1.7v4.2c.1,1,0,2-.3,3ZM21.3,7.8c-1.2,1.2-3.1,1.2-4.3,0s-1.2-3.1,0-4.3h0c1.2-1.2,3.1-1.2,4.3,0,1.2,1.2,1.2,3.1,0,4.3Z"/>
          <path class="cls-1" d="M21.3,3.5c-1.2-1.2-3.1-1.2-4.3,0h0c-1.2,1.2-1.2,3.1,0,4.3,1.2,1.2,3.1,1.2,4.3,0s1.2-3.1,0-4.3ZM20.9,7.4c-1,1-2.6,1-3.6,0-.5-.5-.8-1.1-.8-1.8s.3-1.3.8-1.8c.5-.5,1.1-.8,1.8-.8s1.3.3,1.8.8c1,1,1,2.6,0,3.6Z"/>
        </g>
      </g>
    </g>
  </g>
</svg>