<?xml version="1.0" encoding="UTF-8"?>
<svg xmlns="http://www.w3.org/2000/svg" version="1.1" viewBox="0 0 24 24">
  <defs>
    <style>
      .cls-1, .cls-2, .cls-3 {
        fill: #fff;
      }

      .cls-2 {
        opacity: .3;
      }

      .cls-2, .cls-3 {
        isolation: isolate;
      }

      .cls-3 {
        opacity: .5;
      }
    </style>
  </defs>
  <!-- Generator: Adobe Illustrator 28.7.2, SVG Export Plug-In . SVG Version: 1.2.0 Build 154)  -->
  <g>
    <g id="_레이어_1" data-name="레이어_1">
      <g id="_레이어_1-2" data-name="_레이어_1">
        <g>
          <path class="cls-2" d="M19.1,3.1c-.7,0-1.3.3-1.8.8-1,1-1,2.6,0,3.6s2.7,1,3.6,0c1-1,1-2.6,0-3.6s-1.2-.8-1.8-.8Z"/>
          <path class="cls-3" d="M16.6,3.2c-1.4,1.4-1.4,3.7,0,5,.7.7,1.6,1,2.5,1s1.8-.4,2.5-1c1.4-1.4,1.4-3.7,0-5-1.4-1.4-3.7-1.4-5,0ZM20.9,7.5c-1,1-2.7,1-3.6,0-1-1-1-2.6,0-3.6s1.2-.8,1.8-.8,1.3.3,1.8.8c1,1,1,2.6,0,3.6Z"/>
        </g>
        <path class="cls-1" d="M21.7,8.2h0c-.7.7-1.6,1-2.5,1s-1.8-.4-2.5-1c-1.4-1.4-1.4-3.7,0-5,.3-.3.7-.6,1.1-.8-.4.2-.8.4-1.1.7h-7.9c-1.2,0-2.3,0-3.5.4-.7.3-1.2.9-1.6,1.6-.4,1.1-.5,2.3-.4,3.4v5.3c0,.6,0,1.3,0,2,.3,1.2,1.3,2.2,2.6,2.5.5,0,.9.1,1.4.1v1.9c0,.7,0,1,.2,1.3.2.2.5.4.8.4s.6-.2,1.1-.6l2.5-2c.3-.3.6-.5.9-.7.2-.1.4-.2.6-.2h2.7c1.2.1,2.3,0,3.5-.4.7-.3,1.2-.9,1.6-1.6.4-1.1.5-2.3.4-3.4v-4.8h0Z"/>
      </g>
    </g>
  </g>
</svg>