<?xml version="1.0" encoding="UTF-8"?>
<svg xmlns="http://www.w3.org/2000/svg" version="1.1" viewBox="0 0 24 24">
  <defs>
    <style>
      .cls-1 {
        fill: #fff;
      }
    </style>
  </defs>
  <!-- Generator: Adobe Illustrator 28.7.2, SVG Export Plug-In . SVG Version: 1.2.0 Build 154)  -->
  <g>
    <g id="_레이어_1" data-name="레이어_1">
      <path class="cls-1" d="M19,3H5c-1.7,0-3,1.3-3,3v12c0,1.7,1.3,3,3,3h14c1.7,0,3-1.3,3-3V6c0-1.7-1.3-3-3-3ZM15.8,12.5c0,.2-.2.3-.4.4l-5,2.8c-.5.3-1.1.1-1.4-.4,0-.1-.1-.3-.1-.5v-5.6c0-.6.4-1,1-1,.2,0,.3,0,.5.1l5,2.8c.5.3.7.9.4,1.4Z"/>
    </g>
  </g>
</svg>